<?xml version="1.0" encoding="UTF-8"?>
<svg xmlns="http://www.w3.org/2000/svg" xmlns:xlink="http://www.w3.org/1999/xlink"
     width="1180" height="610" viewBox="0 0 1180 610">
  <defs>
    <!-- Gradient Background -->
    <linearGradient id="bgGrad" x1="0%" y1="0%" x2="100%" y2="100%">
      <stop offset="0%" style="stop-color:#0A101F;stop-opacity:1" />
      <stop offset="100%" style="stop-color:#0F172A;stop-opacity:1" />
    </linearGradient>
    
    <!-- Portrait clip path -->
    <clipPath id="portraitClip">
      <rect x="40" y="60" width="300" height="340" rx="8"/>
    </clipPath>
    
    <!-- Glow filter -->
    <filter id="glow" x="-20%" y="-20%" width="140%" height="140%">
      <feGaussianBlur stdDeviation="3" result="blur"/>
      <feMerge>
        <feMergeNode in="blur"/>
        <feMergeNode in="SourceGraphic"/>
      </feMerge>
    </filter>
  </defs>
  
  <!-- Background -->
  <rect width="1180" height="610" fill="url(#bgGrad)"/>
  
  <!-- Border frame -->
  <rect x="10" y="10" width="1160" height="590" 
        fill="none" stroke="#22D3EE" stroke-width="1" opacity="0.3" rx="4"/>
  
  <!-- Portrait frame -->
  <rect x="20" y="40" width="340" height="380" 
        fill="#1E1B4B" stroke="#22D3EE" stroke-width="2" rx="8"/>
  
  <!-- Frame label -->
  <text x="190" y="30" 
        font-family="'SF Mono', 'Fira Code', monospace" font-size="11" 
        fill="#22D3EE" text-anchor="middle" letter-spacing="3">
    VISUAL.MAP
  </text>
  
  <!-- Dithered portrait dots (Slideshow) -->
  <g clip-path="url(#portraitClip)">
    <g id="portraitDots" opacity="0" transform="translate(40, 60)">
      <path d="M0,0h300v3h-300z M0,3h300v3h-300z M0,6h300v3h-300z M0,9h300v3h-300z M0,12h300v3h-300z M0,15h300v3h-300z M0,18h300v3h-300z M0,21h300v3h-300z M0,24h300v3h-300z M0,27h300v3h-300z M0,30h300v3h-300z M0,33h300v3h-300z M0,36h300v3h-300z M0,39h300v3h-300z M0,42h300v3h-300z M0,45h300v3h-300z M0,48h300v3h-300z M0,51h300v3h-300z M0,54h300v3h-300z M0,57h300v3h-300z M0,60h300v3h-300z M0,63h300v3h-300z M0,66h300v3h-300z M0,69h300v3h-300z M0,72h300v3h-300z M0,75h300v3h-300z M0,78h300v3h-300z M0,81h300v3h-300z M0,84h300v3h-300z M0,87h300v3h-300z M0,90h300v3h-300z M0,93h300v3h-300z M0,96h300v3h-300z M0,99h300v3h-300z M0,102h300v3h-300z M0,105h300v3h-300z M0,108h300v3h-300z M0,111h300v3h-300z M0,114h300v3h-300z M0,117h300v3h-300z M0,120h300v3h-300z M0,123h300v3h-300z M0,126h300v3h-300z M0,129h300v3h-300z M0,132h300v3h-300z M0,135h300v3h-300z M0,138h300v3h-300z M0,141h300v3h-300z M0,144h300v3h-300z M0,147h300v3h-300z M0,150h300v3h-300z M0,153h300v3h-300z M0,156h300v3h-300z M0,159h300v3h-300z M0,162h300v3h-300z M0,165h300v3h-300z M0,168h300v3h-300z M0,171h300v3h-300z M0,174h300v3h-300z M0,177h300v3h-300z M0,180h300v3h-300z M0,183h300v3h-300z M0,186h300v3h-300z M0,189h300v3h-300z M0,192h300v3h-300z M0,195h300v3h-300z M0,198h300v3h-300z M0,201h300v3h-300z M0,204h300v3h-300z M0,207h300v3h-300z M0,210h300v3h-300z M0,213h300v3h-300z M0,216h300v3h-300z M0,219h300v3h-300z M0,222h300v3h-300z M0,225h300v3h-300z M0,228h300v3h-300z M0,231h300v3h-300z M0,234h300v3h-300z M0,237h300v3h-300z M0,240h300v3h-300z M0,243h300v3h-300z M0,246h300v3h-300z M0,249h300v3h-300z M0,252h300v3h-300z M0,255h300v3h-300z M0,258h300v3h-300z M0,261h300v3h-300z M0,264h300v3h-300z M0,267h300v3h-300z M0,270h300v3h-300z M0,273h300v3h-300z M0,276h300v3h-300z M0,279h300v3h-300z M0,282h300v3h-300z M0,285h300v3h-300z M0,288h300v3h-300z M0,291h300v3h-300z M0,294h300v3h-300z M0,297h300v3h-300z M0,300h300v3h-300z M0,303h300v3h-300z M0,306h300v3h-300z M0,309h300v3h-300z M0,312h300v3h-300z M0,315h300v3h-300z M0,318h300v3h-300z M0,321h300v3h-300z M0,324h300v3h-300z M0,327h300v3h-300z M0,330h300v3h-300z M0,333h300v3h-300z M0,336h300v3h-300z M0,339h300v3h-300z" fill="#2d3343" opacity="0.3" shape-rendering="crispEdges"/>
          <g class="slide-0" opacity="1">
      <animate attributeName="opacity" values="1;1;0;0;1" dur="24s" repeatCount="indefinite" keyTimes="0.0;0.125;0.167;0.958;1.0"/>
      <path d="M144,18h12v3h-12z M135,21h15v3h-15z M165,21h6v3h-6z M126,24h3v3h-3z M132,24h6v3h-6z M141,24h15v3h-15z M165,24h3v3h-3z M177,24h3v3h-3z M111,27h3v3h-3z M117,27h12v3h-12z M132,27h24v3h-24z M162,27h3v3h-3z M174,27h15v3h-15z M108,30h12v3h-12z M123,30h39v3h-39z M165,30h12v3h-12z M180,30h6v3h-6z M189,30h3v3h-3z M105,33h75v3h-75z M192,33h3v3h-3z M99,36h3v3h-3z M108,36h9v3h-9z M120,36h21v3h-21z M144,36h15v3h-15z M162,36h18v3h-18z M192,36h6v3h-6z M96,39h24v3h-24z M123,39h15v3h-15z M141,39h3v3h-3z M147,39h9v3h-9z M159,39h3v3h-3z M165,39h18v3h-18z M189,39h12v3h-12z M93,42h3v3h-3z M99,42h6v3h-6z M111,42h6v3h-6z M120,42h15v3h-15z M138,42h21v3h-21z M162,42h9v3h-9z M174,42h12v3h-12z M189,42h9v3h-9z M201,42h6v3h-6z M90,45h3v3h-3z M96,45h6v3h-6z M105,45h9v3h-9z M117,45h18v3h-18z M138,45h3v3h-3z M144,45h27v3h-27z M180,45h9v3h-9z M192,45h12v3h-12z M207,45h3v3h-3z M90,48h9v3h-9z M102,48h9v3h-9z M117,48h12v3h-12z M132,48h24v3h-24z M162,48h3v3h-3z M168,48h3v3h-3z M180,48h24v3h-24z M87,51h9v3h-9z M105,51h48v3h-48z M156,51h6v3h-6z M165,51h9v3h-9z M180,51h12v3h-12z M198,51h9v3h-9z M210,51h3v3h-3z M84,54h9v3h-9z M96,54h3v3h-3z M102,54h6v3h-6z M111,54h12v3h-12z M126,54h3v3h-3z M135,54h3v3h-3z M141,54h6v3h-6z M150,54h9v3h-9z M162,54h3v3h-3z M168,54h3v3h-3z M174,54h3v3h-3z M189,54h9v3h-9z M201,54h9v3h-9z M84,57h6v3h-6z M93,57h9v3h-9z M105,57h3v3h-3z M111,57h12v3h-12z M126,57h12v3h-12z M141,57h12v3h-12z M159,57h6v3h-6z M171,57h30v3h-30z M204,57h6v3h-6z M213,57h3v3h-3z M90,60h12v3h-12z M105,60h36v3h-36z M153,60h12v3h-12z M177,60h3v3h-3z M186,60h3v3h-3z M192,60h3v3h-3z M198,60h3v3h-3z M207,60h12v3h-12z M81,63h6v3h-6z M90,63h33v3h-33z M126,63h15v3h-15z M156,63h15v3h-15z M174,63h6v3h-6z M186,63h3v3h-3z M192,63h3v3h-3z M201,63h3v3h-3z M207,63h12v3h-12z M87,66h24v3h-24z M114,66h6v3h-6z M123,66h3v3h-3z M129,66h12v3h-12z M150,66h3v3h-3z M156,66h12v3h-12z M180,66h6v3h-6z M189,66h6v3h-6z M201,66h15v3h-15z M219,66h3v3h-3z M87,69h3v3h-3z M99,69h27v3h-27z M144,69h9v3h-9z M162,69h6v3h-6z M174,69h12v3h-12z M192,69h15v3h-15z M210,69h3v3h-3z M216,69h6v3h-6z M78,72h12v3h-12z M96,72h9v3h-9z M111,72h18v3h-18z M141,72h15v3h-15z M162,72h39v3h-39z M210,72h6v3h-6z M219,72h3v3h-3z M78,75h12v3h-12z M102,75h3v3h-3z M117,75h12v3h-12z M141,75h15v3h-15z M162,75h27v3h-27z M192,75h12v3h-12z M210,75h3v3h-3z M219,75h3v3h-3z M78,78h12v3h-12z M93,78h3v3h-3z M117,78h15v3h-15z M141,78h15v3h-15z M162,78h9v3h-9z M174,78h15v3h-15z M192,78h12v3h-12z M207,78h6v3h-6z M216,78h6v3h-6z M84,81h6v3h-6z M93,81h3v3h-3z M105,81h9v3h-9z M126,81h12v3h-12z M144,81h21v3h-21z M168,81h3v3h-3z M174,81h9v3h-9z M186,81h12v3h-12z M204,81h12v3h-12z M84,84h12v3h-12z M102,84h15v3h-15z M129,84h12v3h-12z M144,84h54v3h-54z M207,84h9v3h-9z M81,87h6v3h-6z M90,87h9v3h-9z M102,87h15v3h-15z M129,87h21v3h-21z M156,87h18v3h-18z M177,87h6v3h-6z M186,87h6v3h-6z M201,87h3v3h-3z M207,87h9v3h-9z M219,87h3v3h-3z M81,90h6v3h-6z M90,90h6v3h-6z M99,90h3v3h-3z M105,90h6v3h-6z M114,90h9v3h-9z M129,90h9v3h-9z M141,90h45v3h-45z M189,90h3v3h-3z M195,90h24v3h-24z M87,93h3v3h-3z M96,93h18v3h-18z M117,93h3v3h-3z M123,93h12v3h-12z M141,93h21v3h-21z M165,93h6v3h-6z M174,93h6v3h-6z M186,93h3v3h-3z M192,93h3v3h-3z M198,93h12v3h-12z M84,96h6v3h-6z M93,96h6v3h-6z M102,96h15v3h-15z M120,96h12v3h-12z M135,96h3v3h-3z M141,96h3v3h-3z M147,96h39v3h-39z M189,96h24v3h-24z M219,96h3v3h-3z M84,99h3v3h-3z M90,99h42v3h-42z M135,99h30v3h-30z M171,99h12v3h-12z M186,99h21v3h-21z M213,99h6v3h-6z M84,102h3v3h-3z M90,102h21v3h-21z M114,102h9v3h-9z M135,102h12v3h-12z M150,102h3v3h-3z M162,102h6v3h-6z M180,102h3v3h-3z M189,102h6v3h-6z M198,102h18v3h-18z M87,105h33v3h-33z M165,105h6v3h-6z M174,105h24v3h-24z M204,105h3v3h-3z M213,105h3v3h-3z M84,108h6v3h-6z M96,108h3v3h-3z M102,108h33v3h-33z M162,108h36v3h-36z M204,108h3v3h-3z M213,108h3v3h-3z M81,111h18v3h-18z M108,111h6v3h-6z M123,111h18v3h-18z M156,111h18v3h-18z M189,111h9v3h-9z M204,111h9v3h-9z M84,114h3v3h-3z M90,114h12v3h-12z M108,114h9v3h-9z M123,114h12v3h-12z M138,114h6v3h-6z M147,114h3v3h-3z M168,114h9v3h-9z M180,114h3v3h-3z M192,114h15v3h-15z M210,114h9v3h-9z M78,117h9v3h-9z M93,117h3v3h-3z M102,117h6v3h-6z M117,117h9v3h-9z M129,117h3v3h-3z M135,117h24v3h-24z M162,117h12v3h-12z M177,117h18v3h-18z M198,117h9v3h-9z M210,117h9v3h-9z M81,120h3v3h-3z M93,120h6v3h-6z M102,120h3v3h-3z M111,120h6v3h-6z M126,120h12v3h-12z M141,120h30v3h-30z M174,120h18v3h-18z M198,120h27v3h-27z M75,123h3v3h-3z M81,123h3v3h-3z M96,123h9v3h-9z M108,123h3v3h-3z M114,123h6v3h-6z M123,123h9v3h-9z M135,123h36v3h-36z M174,123h9v3h-9z M186,123h12v3h-12z M201,123h3v3h-3z M210,123h3v3h-3z M216,123h9v3h-9z M75,126h3v3h-3z M93,126h12v3h-12z M108,126h6v3h-6z M117,126h3v3h-3z M123,126h6v3h-6z M132,126h6v3h-6z M144,126h6v3h-6z M156,126h15v3h-15z M174,126h15v3h-15z M192,126h6v3h-6z M201,126h3v3h-3z M207,126h18v3h-18z M75,129h3v3h-3z M81,129h3v3h-3z M90,129h9v3h-9z M102,129h3v3h-3z M114,129h3v3h-3z M126,129h3v3h-3z M132,129h6v3h-6z M144,129h3v3h-3z M156,129h12v3h-12z M183,129h12v3h-12z M207,129h18v3h-18z M78,132h6v3h-6z M87,132h6v3h-6z M96,132h3v3h-3z M102,132h3v3h-3z M120,132h15v3h-15z M141,132h6v3h-6z M159,132h6v3h-6z M168,132h3v3h-3z M174,132h15v3h-15z M192,132h3v3h-3z M198,132h3v3h-3z M207,132h15v3h-15z M78,135h3v3h-3z M87,135h3v3h-3z M96,135h3v3h-3z M105,135h3v3h-3z M141,135h6v3h-6z M159,135h6v3h-6z M171,135h3v3h-3z M198,135h3v3h-3z M207,135h15v3h-15z M78,138h3v3h-3z M87,138h3v3h-3z M105,138h3v3h-3z M141,138h3v3h-3z M162,138h3v3h-3z M168,138h3v3h-3z M177,138h9v3h-9z M192,138h3v3h-3z M198,138h3v3h-3z M204,138h3v3h-3z M210,138h12v3h-12z M81,141h3v3h-3z M93,141h3v3h-3z M99,141h3v3h-3z M108,141h3v3h-3z M138,141h6v3h-6z M159,141h9v3h-9z M189,141h3v3h-3z M195,141h3v3h-3z M204,141h6v3h-6z M213,141h6v3h-6z M87,144h3v3h-3z M96,144h6v3h-6z M108,144h6v3h-6z M135,144h6v3h-6z M159,144h30v3h-30z M192,144h3v3h-3z M204,144h9v3h-9z M216,144h3v3h-3z M84,147h3v3h-3z M99,147h3v3h-3z M114,147h24v3h-24z M159,147h3v3h-3z M165,147h24v3h-24z M201,147h6v3h-6z M210,147h3v3h-3z M216,147h3v3h-3z M99,150h3v3h-3z M135,150h3v3h-3z M168,150h6v3h-6z M183,150h3v3h-3z M189,150h6v3h-6z M201,150h9v3h-9z M213,150h3v3h-3z M87,153h3v3h-3z M102,153h3v3h-3z M135,153h3v3h-3z M141,153h6v3h-6z M159,153h3v3h-3z M171,153h6v3h-6z M186,153h9v3h-9z M201,153h3v3h-3z M213,153h3v3h-3z M90,156h6v3h-6z M99,156h6v3h-6z M126,156h6v3h-6z M138,156h12v3h-12z M159,156h21v3h-21z M183,156h12v3h-12z M201,156h12v3h-12z M96,159h3v3h-3z M102,159h3v3h-3z M126,159h3v3h-3z M147,159h18v3h-18z M168,159h9v3h-9z M180,159h3v3h-3z M186,159h9v3h-9z M198,159h3v3h-3z M102,162h3v3h-3z M114,162h3v3h-3z M150,162h3v3h-3z M156,162h12v3h-12z M171,162h3v3h-3z M177,162h12v3h-12z M192,162h3v3h-3z M198,162h3v3h-3z M102,165h6v3h-6z M111,165h3v3h-3z M120,165h6v3h-6z M150,165h6v3h-6z M165,165h3v3h-3z M171,165h12v3h-12z M186,165h9v3h-9z M198,165h3v3h-3z M105,168h3v3h-3z M117,168h3v3h-3z M141,168h9v3h-9z M156,168h21v3h-21z M180,168h3v3h-3z M186,168h6v3h-6z M105,171h3v3h-3z M114,171h3v3h-3z M120,171h3v3h-3z M129,171h18v3h-18z M150,171h39v3h-39z M108,174h3v3h-3z M114,174h3v3h-3z M126,174h3v3h-3z M147,174h12v3h-12z M162,174h3v3h-3z M171,174h9v3h-9z M183,174h3v3h-3z M189,174h3v3h-3z M195,174h3v3h-3z M108,177h6v3h-6z M120,177h3v3h-3z M138,177h3v3h-3z M165,177h6v3h-6z M174,177h6v3h-6z M183,177h3v3h-3z M189,177h3v3h-3z M114,180h3v3h-3z M129,180h3v3h-3z M147,180h3v3h-3z M159,180h3v3h-3z M165,180h3v3h-3z M171,180h6v3h-6z M180,180h9v3h-9z M192,180h3v3h-3z M111,183h6v3h-6z M123,183h3v3h-3z M129,183h3v3h-3z M141,183h3v3h-3z M150,183h15v3h-15z M168,183h21v3h-21z M192,183h3v3h-3z M114,186h9v3h-9z M144,186h6v3h-6z M153,186h9v3h-9z M165,186h3v3h-3z M171,186h12v3h-12z M192,186h3v3h-3z M117,189h6v3h-6z M132,189h3v3h-3z M150,189h12v3h-12z M165,189h3v3h-3z M171,189h6v3h-6z M180,189h9v3h-9z M192,189h3v3h-3z M117,192h3v3h-3z M126,192h3v3h-3z M132,192h3v3h-3z M156,192h3v3h-3z M162,192h3v3h-3z M168,192h3v3h-3z M174,192h6v3h-6z M186,192h3v3h-3z M192,192h3v3h-3z M120,195h6v3h-6z M153,195h3v3h-3z M162,195h12v3h-12z M177,195h3v3h-3z M183,195h6v3h-6z M192,195h3v3h-3z M114,198h3v3h-3z M120,198h6v3h-6z M129,198h3v3h-3z M153,198h3v3h-3z M165,198h3v3h-3z M171,198h6v3h-6z M180,198h6v3h-6z M192,198h3v3h-3z M120,201h9v3h-9z M132,201h6v3h-6z M150,201h3v3h-3z M159,201h6v3h-6z M177,201h3v3h-3z M183,201h6v3h-6z M192,201h3v3h-3z M126,204h15v3h-15z M144,204h3v3h-3z M150,204h9v3h-9z M162,204h9v3h-9z M174,204h6v3h-6z M183,204h3v3h-3z M192,204h3v3h-3z M108,207h3v3h-3z M126,207h9v3h-9z M138,207h12v3h-12z M153,207h9v3h-9z M168,207h15v3h-15z M186,207h3v3h-3z M192,207h3v3h-3z M105,210h3v3h-3z M114,210h3v3h-3z M126,210h3v3h-3z M132,210h27v3h-27z M162,210h9v3h-9z M177,210h3v3h-3z M183,210h3v3h-3z M192,210h6v3h-6z M102,213h3v3h-3z M135,213h3v3h-3z M141,213h42v3h-42z M186,213h3v3h-3z M192,213h9v3h-9z M99,216h3v3h-3z M105,216h6v3h-6z M135,216h3v3h-3z M141,216h3v3h-3z M147,216h3v3h-3z M153,216h18v3h-18z M177,216h3v3h-3z M183,216h3v3h-3z M195,216h3v3h-3z M201,216h3v3h-3z M96,219h3v3h-3z M105,219h6v3h-6z M132,219h6v3h-6z M141,219h3v3h-3z M159,219h9v3h-9z M171,219h12v3h-12z M186,219h3v3h-3z M195,219h6v3h-6z M204,219h3v3h-3z M93,222h3v3h-3z M102,222h3v3h-3z M108,222h3v3h-3z M141,222h3v3h-3z M147,222h3v3h-3z M156,222h3v3h-3z M162,222h6v3h-6z M174,222h3v3h-3z M180,222h6v3h-6z M195,222h9v3h-9z M207,222h3v3h-3z M87,225h6v3h-6z M99,225h6v3h-6z M108,225h3v3h-3z M117,225h3v3h-3z M126,225h3v3h-3z M144,225h3v3h-3z M150,225h6v3h-6z M159,225h24v3h-24z M189,225h15v3h-15z M210,225h6v3h-6z M78,228h6v3h-6z M87,228h3v3h-3z M93,228h6v3h-6z M102,228h9v3h-9z M120,228h3v3h-3z M147,228h3v3h-3z M156,228h12v3h-12z M171,228h3v3h-3z M177,228h12v3h-12z M192,228h18v3h-18z M216,228h6v3h-6z M72,231h3v3h-3z M84,231h3v3h-3z M90,231h6v3h-6z M102,231h9v3h-9z M117,231h3v3h-3z M123,231h3v3h-3z M147,231h3v3h-3z M153,231h24v3h-24z M180,231h3v3h-3z M186,231h3v3h-3z M192,231h12v3h-12z M207,231h18v3h-18z M228,231h3v3h-3z M63,234h9v3h-9z M84,234h12v3h-12z M102,234h9v3h-9z M114,234h3v3h-3z M150,234h6v3h-6z M165,234h9v3h-9z M177,234h27v3h-27z M213,234h6v3h-6z M222,234h3v3h-3z M231,234h9v3h-9z M57,237h6v3h-6z M81,237h3v3h-3z M96,237h3v3h-3z M102,237h9v3h-9z M117,237h3v3h-3z M126,237h3v3h-3z M132,237h3v3h-3z M156,237h18v3h-18z M177,237h9v3h-9z M189,237h15v3h-15z M207,237h3v3h-3z M213,237h21v3h-21z M240,237h6v3h-6z M48,240h3v3h-3z M81,240h12v3h-12z M96,240h6v3h-6z M105,240h6v3h-6z M120,240h3v3h-3z M132,240h9v3h-9z M153,240h3v3h-3z M162,240h15v3h-15z M180,240h3v3h-3z M186,240h3v3h-3z M192,240h6v3h-6z M201,240h6v3h-6z M213,240h9v3h-9z M225,240h15v3h-15z M249,240h6v3h-6z M39,243h6v3h-6z M78,243h3v3h-3z M93,243h3v3h-3z M102,243h12v3h-12z M126,243h3v3h-3z M138,243h3v3h-3z M144,243h6v3h-6z M156,243h9v3h-9z M177,243h6v3h-6z M186,243h3v3h-3z M192,243h6v3h-6z M201,243h6v3h-6z M213,243h12v3h-12z M228,243h21v3h-21z M258,243h6v3h-6z M33,246h3v3h-3z M75,246h3v3h-3z M81,246h12v3h-12z M102,246h12v3h-12z M123,246h3v3h-3z M132,246h3v3h-3z M147,246h3v3h-3z M153,246h3v3h-3z M159,246h3v3h-3z M165,246h18v3h-18z M186,246h33v3h-33z M222,246h3v3h-3z M228,246h24v3h-24z M267,246h6v3h-6z M27,249h6v3h-6z M75,249h3v3h-3z M90,249h3v3h-3z M96,249h3v3h-3z M102,249h9v3h-9z M114,249h3v3h-3z M126,249h6v3h-6z M135,249h3v3h-3z M141,249h3v3h-3z M147,249h12v3h-12z M162,249h9v3h-9z M174,249h9v3h-9z M186,249h6v3h-6z M195,249h36v3h-36z M237,249h24v3h-24z M273,249h6v3h-6z M18,252h3v3h-3z M78,252h9v3h-9z M96,252h3v3h-3z M102,252h9v3h-9z M117,252h3v3h-3z M138,252h3v3h-3z M147,252h3v3h-3z M153,252h3v3h-3z M168,252h15v3h-15z M186,252h6v3h-6z M195,252h33v3h-33z M231,252h30v3h-30z M267,252h3v3h-3z M279,252h6v3h-6z M9,255h6v3h-6z M72,255h3v3h-3z M78,255h6v3h-6z M93,255h3v3h-3z M99,255h6v3h-6z M108,255h9v3h-9z M144,255h3v3h-3z M150,255h3v3h-3z M156,255h3v3h-3z M162,255h6v3h-6z M171,255h9v3h-9z M183,255h6v3h-6z M192,255h6v3h-6z M201,255h9v3h-9z M213,255h30v3h-30z M288,255h6v3h-6z M3,258h3v3h-3z M72,258h12v3h-12z M87,258h15v3h-15z M105,258h9v3h-9z M117,258h3v3h-3z M123,258h6v3h-6z M141,258h3v3h-3z M147,258h3v3h-3z M153,258h3v3h-3z M168,258h15v3h-15z M189,258h3v3h-3z M195,258h9v3h-9z M207,258h9v3h-9z M225,258h12v3h-12z M72,261h6v3h-6z M81,261h6v3h-6z M90,261h9v3h-9z M108,261h6v3h-6z M120,261h3v3h-3z M129,261h3v3h-3z M141,261h3v3h-3z M150,261h3v3h-3z M168,261h3v3h-3z M174,261h3v3h-3z M183,261h6v3h-6z M192,261h6v3h-6z M201,261h15v3h-15z M219,261h15v3h-15z M6,264h3v3h-3z M78,264h9v3h-9z M90,264h3v3h-3z M108,264h3v3h-3z M114,264h3v3h-3z M123,264h3v3h-3z M135,264h6v3h-6z M147,264h3v3h-3z M168,264h3v3h-3z M177,264h6v3h-6z M186,264h9v3h-9z M198,264h15v3h-15z M216,264h18v3h-18z M3,267h6v3h-6z M81,267h9v3h-9z M108,267h6v3h-6z M117,267h3v3h-3z M123,267h6v3h-6z M135,267h3v3h-3z M147,267h15v3h-15z M174,267h9v3h-9z M186,267h3v3h-3z M201,267h27v3h-27z M6,270h3v3h-3z M78,270h6v3h-6z M108,270h3v3h-3z M120,270h3v3h-3z M138,270h3v3h-3z M150,270h3v3h-3z M156,270h3v3h-3z M162,270h3v3h-3z M171,270h3v3h-3z M183,270h3v3h-3z M198,270h15v3h-15z M219,270h9v3h-9z M72,273h6v3h-6z M108,273h3v3h-3z M123,273h6v3h-6z M141,273h3v3h-3z M147,273h6v3h-6z M156,273h3v3h-3z M165,273h3v3h-3z M171,273h3v3h-3z M177,273h6v3h-6z M186,273h3v3h-3z M198,273h27v3h-27z M228,273h6v3h-6z M294,273h3v3h-3z M69,276h3v3h-3z M108,276h3v3h-3z M114,276h3v3h-3z M132,276h6v3h-6z M168,276h6v3h-6z M198,276h6v3h-6z M207,276h15v3h-15z M234,276h3v3h-3z M294,276h3v3h-3z M9,279h3v3h-3z M66,279h3v3h-3z M108,279h6v3h-6z M141,279h21v3h-21z M168,279h6v3h-6z M192,279h6v3h-6z M201,279h21v3h-21z M237,279h3v3h-3z M294,279h3v3h-3z M9,282h3v3h-3z M66,282h3v3h-3z M108,282h9v3h-9z M150,282h3v3h-3z M159,282h6v3h-6z M192,282h6v3h-6z M201,282h3v3h-3z M207,282h6v3h-6z M216,282h6v3h-6z M237,282h6v3h-6z M261,282h12v3h-12z M288,282h6v3h-6z M9,285h3v3h-3z M66,285h3v3h-3z M108,285h9v3h-9z M162,285h3v3h-3z M192,285h6v3h-6z M201,285h21v3h-21z M237,285h6v3h-6z M261,285h3v3h-3z M270,285h3v3h-3z M285,285h12v3h-12z M12,288h3v3h-3z M108,288h6v3h-6z M156,288h6v3h-6z M192,288h3v3h-3z M198,288h12v3h-12z M213,288h12v3h-12z M237,288h3v3h-3z M258,288h36v3h-36z M12,291h3v3h-3z M108,291h6v3h-6z M117,291h3v3h-3z M192,291h15v3h-15z M210,291h9v3h-9z M225,291h3v3h-3z M234,291h6v3h-6z M261,291h33v3h-33z M12,294h3v3h-3z M69,294h3v3h-3z M108,294h6v3h-6z M117,294h6v3h-6z M189,294h15v3h-15z M210,294h9v3h-9z M234,294h6v3h-6z M255,294h24v3h-24z M282,294h15v3h-15z M12,297h3v3h-3z M69,297h3v3h-3z M111,297h3v3h-3z M120,297h3v3h-3z M189,297h3v3h-3z M198,297h21v3h-21z M234,297h6v3h-6z M255,297h27v3h-27z M285,297h12v3h-12z M12,300h6v3h-6z M69,300h3v3h-3z M111,300h3v3h-3z M120,300h3v3h-3z M189,300h6v3h-6z M198,300h6v3h-6z M210,300h9v3h-9z M234,300h6v3h-6z M252,300h9v3h-9z M267,300h6v3h-6z M276,300h3v3h-3z M285,300h6v3h-6z M294,300h3v3h-3z M15,303h3v3h-3z M111,303h3v3h-3z M189,303h6v3h-6z M198,303h18v3h-18z M234,303h3v3h-3z M249,303h12v3h-12z M264,303h15v3h-15z M282,303h6v3h-6z M291,303h6v3h-6z M15,306h3v3h-3z M111,306h6v3h-6z M189,306h6v3h-6z M198,306h9v3h-9z M210,306h6v3h-6z M231,306h6v3h-6z M249,306h3v3h-3z M258,306h12v3h-12z M273,306h15v3h-15z M291,306h3v3h-3z M15,309h6v3h-6z M111,309h6v3h-6z M120,309h3v3h-3z M189,309h3v3h-3z M195,309h21v3h-21z M231,309h6v3h-6z M246,309h3v3h-3z M252,309h3v3h-3z M264,309h3v3h-3z M270,309h18v3h-18z M291,309h6v3h-6z M15,312h6v3h-6z M72,312h3v3h-3z M111,312h6v3h-6z M120,312h3v3h-3z M189,312h3v3h-3z M195,312h12v3h-12z M210,312h6v3h-6z M231,312h6v3h-6z M246,312h6v3h-6z M261,312h27v3h-27z M291,312h6v3h-6z M15,315h6v3h-6z M72,315h3v3h-3z M111,315h6v3h-6z M123,315h3v3h-3z M189,315h3v3h-3z M198,315h6v3h-6z M207,315h9v3h-9z M231,315h6v3h-6z M243,315h6v3h-6z M261,315h27v3h-27z M294,315h3v3h-3z M15,318h9v3h-9z M72,318h3v3h-3z M111,318h6v3h-6z M123,318h3v3h-3z M189,318h3v3h-3z M195,318h18v3h-18z M228,318h6v3h-6z M243,318h3v3h-3z M264,318h3v3h-3z M270,318h15v3h-15z M288,318h9v3h-9z M15,321h9v3h-9z M111,321h6v3h-6z M123,321h3v3h-3z M189,321h3v3h-3z M195,321h6v3h-6z M204,321h6v3h-6z M228,321h6v3h-6z M240,321h6v3h-6z M264,321h21v3h-21z M288,321h3v3h-3z M294,321h3v3h-3z M15,324h9v3h-9z M111,324h6v3h-6z M186,324h3v3h-3z M195,324h15v3h-15z M228,324h3v3h-3z M240,324h3v3h-3z M267,324h27v3h-27z M18,327h3v3h-3z M75,327h3v3h-3z M111,327h6v3h-6z M186,327h3v3h-3z M195,327h6v3h-6z M207,327h3v3h-3z M228,327h6v3h-6z M237,327h6v3h-6z M270,327h3v3h-3z M276,327h3v3h-3z M282,327h3v3h-3z M288,327h6v3h-6z M15,330h9v3h-9z M75,330h3v3h-3z M114,330h3v3h-3z M186,330h3v3h-3z M195,330h12v3h-12z M225,330h9v3h-9z M237,330h6v3h-6z M273,330h12v3h-12z M288,330h3v3h-3z M3,333h12v3h-12z M18,333h9v3h-9z M75,333h3v3h-3z M114,333h6v3h-6z M186,333h3v3h-3z M195,333h12v3h-12z M225,333h18v3h-18z M273,333h3v3h-3z M279,333h3v3h-3z M285,333h6v3h-6z M3,336h24v3h-24z M78,336h3v3h-3z M114,336h6v3h-6z M186,336h6v3h-6z M195,336h6v3h-6z M225,336h15v3h-15z M270,336h21v3h-21z" fill="#A78BFA" shape-rendering="crispEdges"/>
    </g>
    <g class="slide-1" opacity="0">
      <animate attributeName="opacity" values="0;0;1;1;0;0" dur="24s" repeatCount="indefinite" keyTimes="0.0;0.125;0.167;0.292;0.333;1.0"/>
      <path d="M63,120h3v3h-3z M60,123h3v3h-3z M69,123h3v3h-3z M108,123h3v3h-3z M120,123h3v3h-3z M129,123h3v3h-3z M183,123h3v3h-3z M228,123h3v3h-3z M66,126h3v3h-3z M90,126h3v3h-3z M225,129h3v3h-3z M90,132h3v3h-3z M138,132h3v3h-3z M198,132h3v3h-3z M126,135h3v3h-3z M150,135h3v3h-3z M231,135h3v3h-3z M63,138h3v3h-3z M69,138h3v3h-3z M138,138h12v3h-12z M156,138h6v3h-6z M195,138h3v3h-3z M210,138h3v3h-3z M234,138h3v3h-3z M135,141h6v3h-6z M147,141h3v3h-3z M153,141h15v3h-15z M93,144h3v3h-3z M135,144h3v3h-3z M144,144h9v3h-9z M156,144h3v3h-3z M162,144h6v3h-6z M222,144h3v3h-3z M96,147h3v3h-3z M135,147h6v3h-6z M147,147h9v3h-9z M159,147h9v3h-9z M81,150h3v3h-3z M141,150h15v3h-15z M165,150h3v3h-3z M177,150h3v3h-3z M195,150h3v3h-3z M231,150h3v3h-3z M75,153h6v3h-6z M120,153h3v3h-3z M126,153h3v3h-3z M153,153h9v3h-9z M171,153h6v3h-6z M201,153h3v3h-3z M96,156h3v3h-3z M123,156h21v3h-21z M147,156h6v3h-6z M165,156h3v3h-3z M177,156h3v3h-3z M123,159h12v3h-12z M141,159h12v3h-12z M222,159h3v3h-3z M117,162h6v3h-6z M126,162h6v3h-6z M135,162h3v3h-3z M141,162h3v3h-3z M150,162h3v3h-3z M156,162h3v3h-3z M165,162h3v3h-3z M174,162h3v3h-3z M225,162h3v3h-3z M120,165h6v3h-6z M129,165h12v3h-12z M144,165h12v3h-12z M159,165h6v3h-6z M168,165h3v3h-3z M84,168h3v3h-3z M117,168h3v3h-3z M126,168h3v3h-3z M141,168h3v3h-3z M147,168h3v3h-3z M174,168h3v3h-3z M120,171h3v3h-3z M126,171h6v3h-6z M156,171h9v3h-9z M183,171h3v3h-3z M102,174h3v3h-3z M120,174h9v3h-9z M150,174h3v3h-3z M177,174h3v3h-3z M189,174h3v3h-3z M219,174h3v3h-3z M117,177h3v3h-3z M123,177h3v3h-3z M129,177h3v3h-3z M135,177h3v3h-3z M141,177h3v3h-3z M150,177h3v3h-3z M159,177h3v3h-3z M165,177h6v3h-6z M180,177h3v3h-3z M216,177h3v3h-3z M231,177h3v3h-3z M120,180h3v3h-3z M126,180h6v3h-6z M171,180h12v3h-12z M213,180h3v3h-3z M237,180h3v3h-3z M66,183h3v3h-3z M120,183h6v3h-6z M138,183h3v3h-3z M144,183h3v3h-3z M150,183h3v3h-3z M159,183h3v3h-3z M174,183h3v3h-3z M234,183h3v3h-3z M69,186h3v3h-3z M135,186h3v3h-3z M198,186h3v3h-3z M72,189h3v3h-3z M114,189h3v3h-3z M138,189h3v3h-3z M144,189h3v3h-3z M150,189h3v3h-3z M156,189h3v3h-3z M162,189h3v3h-3z M207,189h3v3h-3z M63,192h3v3h-3z M138,192h3v3h-3z M150,192h3v3h-3z M171,192h3v3h-3z M102,195h3v3h-3z M153,195h3v3h-3z M165,195h3v3h-3z M141,198h3v3h-3z M150,198h3v3h-3z M162,198h3v3h-3z M201,198h3v3h-3z M105,201h3v3h-3z M144,201h3v3h-3z M207,201h3v3h-3z M231,201h3v3h-3z M72,204h3v3h-3z M114,204h3v3h-3z M159,204h3v3h-3z M192,204h3v3h-3z M198,204h3v3h-3z M66,207h3v3h-3z M141,207h3v3h-3z M93,210h3v3h-3z M180,210h3v3h-3z M87,213h3v3h-3z M156,213h3v3h-3z M165,213h3v3h-3z M126,216h3v3h-3z M180,216h3v3h-3z M123,219h3v3h-3z M177,219h3v3h-3z M216,219h3v3h-3z M222,219h3v3h-3z M81,222h3v3h-3z" fill="#A78BFA" shape-rendering="crispEdges"/>
    </g>
    <g class="slide-2" opacity="0">
      <animate attributeName="opacity" values="0;0;1;1;0;0" dur="24s" repeatCount="indefinite" keyTimes="0.0;0.292;0.333;0.458;0.500;1.0"/>
      <path d="M108,105h3v3h-3z M120,105h3v3h-3z M132,105h3v3h-3z M138,105h3v3h-3z M159,105h3v3h-3z M165,105h3v3h-3z M183,105h6v3h-6z M105,108h3v3h-3z M120,108h3v3h-3z M135,108h3v3h-3z M156,108h3v3h-3z M165,108h3v3h-3z M171,108h3v3h-3z M180,108h3v3h-3z M105,111h6v3h-6z M117,111h3v3h-3z M135,111h6v3h-6z M153,111h3v3h-3z M165,111h3v3h-3z M171,111h3v3h-3z M105,114h3v3h-3z M117,114h3v3h-3z M138,114h3v3h-3z M153,114h3v3h-3z M159,114h3v3h-3z M171,114h3v3h-3z M180,114h3v3h-3z M105,117h6v3h-6z M117,117h6v3h-6z M138,117h3v3h-3z M153,117h3v3h-3z M162,117h6v3h-6z M183,117h9v3h-9z M105,120h6v3h-6z M135,120h3v3h-3z M156,120h6v3h-6z M168,120h6v3h-6z M180,120h9v3h-9z M102,132h3v3h-3z M108,132h3v3h-3z M120,132h3v3h-3z M126,132h3v3h-3z M132,132h3v3h-3z M138,132h6v3h-6z M147,132h6v3h-6z M156,132h9v3h-9z M168,132h3v3h-3z M177,132h3v3h-3z M186,132h3v3h-3z M108,135h3v3h-3z M114,135h9v3h-9z M126,135h6v3h-6z M144,135h6v3h-6z M156,135h6v3h-6z M165,135h6v3h-6z M180,135h3v3h-3z M186,135h12v3h-12z M108,138h6v3h-6z M117,138h3v3h-3z M123,138h3v3h-3z M129,138h3v3h-3z M135,138h3v3h-3z M141,138h3v3h-3z M147,138h3v3h-3z M153,138h6v3h-6z M162,138h6v3h-6z M171,138h3v3h-3z M177,138h12v3h-12z M192,138h3v3h-3z M105,141h3v3h-3z M111,141h3v3h-3z M120,141h3v3h-3z M129,141h3v3h-3z M135,141h3v3h-3z M141,141h3v3h-3z M147,141h3v3h-3z M153,141h21v3h-21z M189,141h6v3h-6z M105,144h3v3h-3z M111,144h3v3h-3z M117,144h6v3h-6z M126,144h3v3h-3z M132,144h3v3h-3z M138,144h6v3h-6z M147,144h3v3h-3z M159,144h3v3h-3z M165,144h3v3h-3z M174,144h6v3h-6z M186,144h3v3h-3z M192,144h3v3h-3z M108,147h3v3h-3z M126,147h3v3h-3z M135,147h9v3h-9z M147,147h3v3h-3z M156,147h3v3h-3z M168,147h6v3h-6z M177,147h3v3h-3z M183,147h3v3h-3z M189,147h3v3h-3z M108,150h6v3h-6z M117,150h3v3h-3z M177,150h3v3h-3z M189,150h3v3h-3z M105,153h3v3h-3z M111,153h3v3h-3z M117,153h6v3h-6z M180,153h3v3h-3z M189,153h6v3h-6z M108,156h6v3h-6z M117,156h3v3h-3z M177,156h9v3h-9z M189,156h6v3h-6z M108,159h3v3h-3z M114,159h3v3h-3z M120,159h3v3h-3z M186,159h3v3h-3z M192,159h3v3h-3z M108,162h6v3h-6z M117,162h6v3h-6z M138,162h9v3h-9z M150,162h3v3h-3z M159,162h3v3h-3z M171,162h6v3h-6z M186,162h3v3h-3z M192,162h3v3h-3z M105,165h12v3h-12z M141,165h6v3h-6z M153,165h6v3h-6z M162,165h12v3h-12z M180,165h3v3h-3z M189,165h3v3h-3z M108,168h9v3h-9z M120,168h3v3h-3z M135,168h12v3h-12z M150,168h3v3h-3z M159,168h9v3h-9z M177,168h9v3h-9z M189,168h3v3h-3z M105,171h3v3h-3z M111,171h3v3h-3z M117,171h3v3h-3z M135,171h3v3h-3z M141,171h3v3h-3z M147,171h3v3h-3z M159,171h6v3h-6z M189,171h6v3h-6z M105,174h3v3h-3z M111,174h3v3h-3z M117,174h3v3h-3z M147,174h3v3h-3z M186,174h3v3h-3z M192,174h3v3h-3z M108,177h3v3h-3z M114,177h9v3h-9z M189,177h3v3h-3z M105,180h3v3h-3z M114,180h3v3h-3z M120,180h3v3h-3z M180,180h3v3h-3z M186,180h3v3h-3z M192,180h3v3h-3z M108,183h3v3h-3z M114,183h3v3h-3z M120,183h3v3h-3z M177,183h6v3h-6z M186,183h6v3h-6z M105,186h6v3h-6z M114,186h6v3h-6z M183,186h3v3h-3z M189,186h3v3h-3z M105,189h6v3h-6z M117,189h9v3h-9z M141,189h9v3h-9z M153,189h3v3h-3z M159,189h6v3h-6z M177,189h9v3h-9z M189,189h6v3h-6z M105,192h12v3h-12z M120,192h3v3h-3z M126,192h3v3h-3z M132,192h3v3h-3z M138,192h3v3h-3z M144,192h3v3h-3z M150,192h12v3h-12z M177,192h3v3h-3z M183,192h3v3h-3z M189,192h3v3h-3z M108,195h3v3h-3z M114,195h3v3h-3z M120,195h3v3h-3z M132,195h3v3h-3z M138,195h3v3h-3z M144,195h3v3h-3z M150,195h9v3h-9z M177,195h6v3h-6z M189,195h6v3h-6z M105,198h6v3h-6z M114,198h3v3h-3z M123,198h3v3h-3z M144,198h6v3h-6z M156,198h3v3h-3z M183,198h3v3h-3z M189,198h3v3h-3z M108,201h6v3h-6z M117,201h6v3h-6z M141,201h6v3h-6z M105,204h3v3h-3z M111,204h6v3h-6z M120,204h3v3h-3z M183,204h3v3h-3z M189,204h3v3h-3z M111,207h3v3h-3z M117,207h3v3h-3z M123,207h6v3h-6z M177,207h6v3h-6z M186,207h3v3h-3z M192,207h3v3h-3z M108,210h3v3h-3z M114,210h3v3h-3z M120,210h6v3h-6z M129,210h3v3h-3z M171,210h12v3h-12z M186,210h3v3h-3z M192,210h3v3h-3z M108,213h3v3h-3z M114,213h3v3h-3z M120,213h3v3h-3z M126,213h6v3h-6z M135,213h3v3h-3z M159,213h6v3h-6z M171,213h3v3h-3z M177,213h6v3h-6z M186,213h3v3h-3z M108,216h9v3h-9z M120,216h3v3h-3z M129,216h3v3h-3z M135,216h6v3h-6z M144,216h3v3h-3z M156,216h6v3h-6z M165,216h3v3h-3z M174,216h3v3h-3z M180,216h3v3h-3z M186,216h6v3h-6z M114,219h3v3h-3z M120,219h3v3h-3z M126,219h3v3h-3z M132,219h6v3h-6z M147,219h3v3h-3z M153,219h3v3h-3z M162,219h3v3h-3z M168,219h3v3h-3z M174,219h3v3h-3z M180,219h3v3h-3z M186,219h6v3h-6z M114,222h6v3h-6z M123,222h3v3h-3z M129,222h3v3h-3z M135,222h3v3h-3z M141,222h9v3h-9z M162,222h3v3h-3z M168,222h3v3h-3z M174,222h3v3h-3z M129,225h6v3h-6z M138,225h3v3h-3z M144,225h3v3h-3z M150,225h3v3h-3z M156,225h3v3h-3z M162,225h9v3h-9z M174,225h3v3h-3z M138,228h3v3h-3z M144,228h3v3h-3z M150,228h3v3h-3z M156,228h6v3h-6z M165,228h6v3h-6z M135,231h3v3h-3z M141,231h3v3h-3z M150,231h3v3h-3z M156,231h3v3h-3z M147,234h9v3h-9z" fill="#A78BFA" shape-rendering="crispEdges"/>
    </g>
    <g class="slide-3" opacity="0">
      <animate attributeName="opacity" values="0;0;1;1;0;0" dur="24s" repeatCount="indefinite" keyTimes="0.0;0.458;0.500;0.625;0.667;1.0"/>
      <path d="M135,123h9v3h-9z M147,123h24v3h-24z M135,126h9v3h-9z M147,126h9v3h-9z M159,126h6v3h-6z M135,129h3v3h-3z M147,129h24v3h-24z M135,132h9v3h-9z M147,132h9v3h-9z M159,132h12v3h-12z M135,135h3v3h-3z M141,135h3v3h-3z M147,135h6v3h-6z M159,135h3v3h-3z M150,141h6v3h-6z M159,141h27v3h-27z M120,144h66v3h-66z M156,147h6v3h-6z M171,147h15v3h-15z M120,150h42v3h-42z M165,150h15v3h-15z M153,153h33v3h-33z M120,156h12v3h-12z M174,156h12v3h-12z M120,159h15v3h-15z M144,159h3v3h-3z M177,159h3v3h-3z M183,159h3v3h-3z M120,162h12v3h-12z M177,162h9v3h-9z M123,165h18v3h-18z M147,165h3v3h-3z M159,165h6v3h-6z M174,165h3v3h-3z M180,165h3v3h-3z M135,168h15v3h-15z M156,168h9v3h-9z M174,168h3v3h-3z M135,171h9v3h-9z M156,171h6v3h-6z M171,171h3v3h-3z M177,171h6v3h-6z M123,174h9v3h-9z M138,174h3v3h-3z M144,174h3v3h-3z M171,174h9v3h-9z M123,177h12v3h-12z M171,177h6v3h-6z M132,180h3v3h-3z M138,180h3v3h-3z M147,180h3v3h-3z M153,180h3v3h-3z M159,180h3v3h-3z M171,180h12v3h-12z M123,183h9v3h-9z M135,183h3v3h-3z M141,183h3v3h-3z M156,183h3v3h-3z M171,183h3v3h-3z M177,183h6v3h-6z M126,186h9v3h-9z M144,186h12v3h-12z M159,186h3v3h-3z M174,186h9v3h-9z M123,189h12v3h-12z M144,189h6v3h-6z M156,189h3v3h-3z M171,189h12v3h-12z M123,192h12v3h-12z M141,192h3v3h-3z M150,192h6v3h-6z M174,192h9v3h-9z M123,195h12v3h-12z M171,195h12v3h-12z M123,198h15v3h-15z M147,198h3v3h-3z M168,198h12v3h-12z M126,201h15v3h-15z M144,201h6v3h-6z M162,201h3v3h-3z M168,201h3v3h-3z M174,201h3v3h-3z M129,204h15v3h-15z M159,204h9v3h-9z M174,204h6v3h-6z M126,207h3v3h-3z M144,207h36v3h-36z M129,210h24v3h-24z M156,210h3v3h-3z M165,210h12v3h-12z M141,213h15v3h-15z M162,213h3v3h-3z M150,216h3v3h-3z" fill="#A78BFA" shape-rendering="crispEdges"/>
    </g>
    <g class="slide-4" opacity="0">
      <animate attributeName="opacity" values="0;0;1;1;0;0" dur="24s" repeatCount="indefinite" keyTimes="0.0;0.625;0.667;0.792;0.833;1.0"/>
      <path d="M72,81h6v3h-6z M81,81h3v3h-3z M87,81h3v3h-3z M93,81h3v3h-3z M99,81h9v3h-9z M114,81h3v3h-3z M120,81h3v3h-3z M126,81h3v3h-3z M132,81h3v3h-3z M138,81h3v3h-3z M144,81h3v3h-3z M150,81h3v3h-3z M156,81h3v3h-3z M162,81h3v3h-3z M168,81h3v3h-3z M174,81h3v3h-3z M180,81h3v3h-3z M186,81h3v3h-3z M192,81h3v3h-3z M198,81h3v3h-3z M204,81h3v3h-3z M210,81h3v3h-3z M216,81h3v3h-3z M222,81h3v3h-3z M228,81h3v3h-3z M69,84h6v3h-6z M78,84h12v3h-12z M213,84h12v3h-12z M228,84h6v3h-6z M69,87h6v3h-6z M78,87h3v3h-3z M222,87h3v3h-3z M228,87h6v3h-6z M66,90h3v3h-3z M72,90h3v3h-3z M225,90h3v3h-3z M231,90h3v3h-3z M66,93h6v3h-6z M228,93h3v3h-3z M234,93h3v3h-3z M63,96h12v3h-12z M228,96h3v3h-3z M234,96h3v3h-3z M63,99h9v3h-9z M231,99h9v3h-9z M63,102h9v3h-9z M231,102h9v3h-9z M63,105h9v3h-9z M231,105h9v3h-9z M60,108h3v3h-3z M66,108h6v3h-6z M231,108h3v3h-3z M237,108h3v3h-3z M63,111h9v3h-9z M231,111h9v3h-9z M66,114h3v3h-3z M231,114h9v3h-9z M63,117h9v3h-9z M231,117h9v3h-9z M66,120h3v3h-3z M231,120h3v3h-3z M237,120h3v3h-3z M63,123h9v3h-9z M231,123h3v3h-3z M237,123h3v3h-3z M66,126h3v3h-3z M231,126h9v3h-9z M63,129h3v3h-3z M69,129h3v3h-3z M96,129h9v3h-9z M237,129h3v3h-3z M66,132h6v3h-6z M96,132h21v3h-21z M231,132h9v3h-9z M63,135h9v3h-9z M99,135h12v3h-12z M114,135h9v3h-9z M231,135h3v3h-3z M237,135h3v3h-3z M63,138h9v3h-9z M102,138h6v3h-6z M114,138h9v3h-9z M231,138h9v3h-9z M63,141h3v3h-3z M69,141h3v3h-3z M111,141h15v3h-15z M129,141h6v3h-6z M234,141h6v3h-6z M66,144h6v3h-6z M117,144h6v3h-6z M126,144h9v3h-9z M138,144h6v3h-6z M231,144h9v3h-9z M63,147h9v3h-9z M123,147h3v3h-3z M129,147h6v3h-6z M138,147h12v3h-12z M231,147h3v3h-3z M237,147h3v3h-3z M60,150h3v3h-3z M66,150h3v3h-3z M132,150h18v3h-18z M231,150h9v3h-9z M60,153h12v3h-12z M141,153h3v3h-3z M231,153h3v3h-3z M237,153h3v3h-3z M63,156h9v3h-9z M126,156h3v3h-3z M135,156h15v3h-15z M231,156h9v3h-9z M66,159h6v3h-6z M123,159h15v3h-15z M141,159h6v3h-6z M231,159h3v3h-3z M237,159h3v3h-3z M63,162h3v3h-3z M69,162h3v3h-3z M114,162h6v3h-6z M123,162h6v3h-6z M132,162h6v3h-6z M231,162h3v3h-3z M237,162h3v3h-3z M60,165h3v3h-3z M66,165h6v3h-6z M108,165h12v3h-12z M123,165h3v3h-3z M231,165h9v3h-9z M69,168h3v3h-3z M102,168h9v3h-9z M114,168h9v3h-9z M231,168h9v3h-9z M63,171h6v3h-6z M96,171h18v3h-18z M117,171h3v3h-3z M234,171h6v3h-6z M66,174h6v3h-6z M96,174h3v3h-3z M102,174h6v3h-6z M231,174h9v3h-9z M63,177h3v3h-3z M69,177h3v3h-3z M96,177h9v3h-9z M237,177h3v3h-3z M66,180h6v3h-6z M231,180h3v3h-3z M237,180h3v3h-3z M63,183h9v3h-9z M234,183h6v3h-6z M66,186h6v3h-6z M231,186h9v3h-9z M63,189h9v3h-9z M153,189h9v3h-9z M234,189h6v3h-6z M66,192h6v3h-6z M150,192h6v3h-6z M159,192h3v3h-3z M171,192h21v3h-21z M198,192h9v3h-9z M231,192h9v3h-9z M60,195h12v3h-12z M156,195h15v3h-15z M174,195h3v3h-3z M180,195h9v3h-9z M192,195h6v3h-6z M201,195h6v3h-6z M231,195h9v3h-9z M66,198h6v3h-6z M153,198h9v3h-9z M195,198h3v3h-3z M201,198h3v3h-3z M234,198h6v3h-6z M60,201h12v3h-12z M231,201h3v3h-3z M237,201h3v3h-3z M63,204h3v3h-3z M69,204h3v3h-3z M231,204h9v3h-9z M63,207h6v3h-6z M231,207h6v3h-6z M60,210h12v3h-12z M231,210h6v3h-6z M63,213h3v3h-3z M69,213h3v3h-3z M231,213h3v3h-3z M237,213h3v3h-3z M60,216h9v3h-9z M231,216h9v3h-9z M63,219h6v3h-6z M231,219h3v3h-3z M237,219h3v3h-3z M66,222h6v3h-6z M231,222h9v3h-9z M63,225h9v3h-9z M234,225h6v3h-6z M66,228h3v3h-3z M228,228h12v3h-12z M63,231h12v3h-12z M231,231h9v3h-9z M69,234h6v3h-6z M225,234h6v3h-6z M234,234h3v3h-3z M66,237h9v3h-9z M78,237h3v3h-3z M234,237h3v3h-3z M72,240h12v3h-12z M216,240h12v3h-12z M231,240h3v3h-3z M72,243h42v3h-42z M117,243h9v3h-9z M129,243h9v3h-9z M141,243h3v3h-3z M147,243h9v3h-9z M159,243h3v3h-3z M165,243h9v3h-9z M180,243h12v3h-12z M198,243h21v3h-21z M222,243h9v3h-9z M78,246h15v3h-15z M96,246h9v3h-9z M111,246h9v3h-9z M123,246h9v3h-9z M135,246h15v3h-15z M153,246h6v3h-6z M162,246h6v3h-6z M171,246h9v3h-9z M183,246h21v3h-21z M207,246h3v3h-3z M213,246h6v3h-6z M222,246h3v3h-3z M87,249h3v3h-3z M93,249h6v3h-6z M102,249h6v3h-6z M111,249h3v3h-3z M117,249h9v3h-9z M129,249h9v3h-9z M141,249h3v3h-3z M147,249h9v3h-9z M159,249h3v3h-3z M165,249h6v3h-6z M174,249h9v3h-9z M186,249h3v3h-3z M192,249h12v3h-12z M207,249h9v3h-9z M219,249h3v3h-3z M96,252h3v3h-3z M102,252h6v3h-6z M114,252h12v3h-12z M129,252h6v3h-6z M144,252h6v3h-6z M153,252h6v3h-6z M165,252h3v3h-3z M177,252h3v3h-3z M183,252h21v3h-21z M207,252h3v3h-3z M213,252h3v3h-3z M126,258h3v3h-3z M162,258h3v3h-3z M171,258h3v3h-3z M183,258h3v3h-3z M192,258h3v3h-3z M201,258h3v3h-3z" fill="#A78BFA" shape-rendering="crispEdges"/>
    </g>
    <g class="slide-5" opacity="0">
      <animate attributeName="opacity" values="0;0;1;1;0" dur="24s" repeatCount="indefinite" keyTimes="0.0;0.792;0.833;0.958;1.0"/>
      <path d="M216,126h3v3h-3z M222,126h3v3h-3z M228,126h3v3h-3z M210,129h3v3h-3z M216,129h3v3h-3z M222,129h3v3h-3z M228,129h3v3h-3z M207,132h3v3h-3z M213,132h3v3h-3z M219,132h3v3h-3z M225,132h3v3h-3z M231,132h6v3h-6z M207,135h3v3h-3z M213,135h3v3h-3z M231,135h3v3h-3z M237,135h3v3h-3z M186,138h3v3h-3z M198,138h6v3h-6z M207,138h3v3h-3z M234,138h3v3h-3z M168,141h6v3h-6z M183,141h3v3h-3z M189,141h3v3h-3z M195,141h3v3h-3z M204,141h3v3h-3z M210,141h3v3h-3z M234,141h3v3h-3z M165,144h3v3h-3z M174,144h6v3h-6z M183,144h3v3h-3z M189,144h3v3h-3z M195,144h3v3h-3z M201,144h3v3h-3z M207,144h3v3h-3z M234,144h3v3h-3z M165,147h3v3h-3z M171,147h3v3h-3z M204,147h3v3h-3z M210,147h3v3h-3z M231,147h3v3h-3z M237,147h3v3h-3z M165,150h3v3h-3z M207,150h3v3h-3z M213,150h6v3h-6z M228,150h3v3h-3z M234,150h3v3h-3z M78,153h3v3h-3z M84,153h3v3h-3z M117,153h3v3h-3z M126,153h3v3h-3z M132,153h3v3h-3z M162,153h3v3h-3z M168,153h3v3h-3z M207,153h3v3h-3z M213,153h3v3h-3z M219,153h3v3h-3z M225,153h3v3h-3z M231,153h3v3h-3z M66,156h6v3h-6z M75,156h3v3h-3z M81,156h3v3h-3z M87,156h6v3h-6z M114,156h3v3h-3z M120,156h6v3h-6z M129,156h3v3h-3z M135,156h3v3h-3z M159,156h6v3h-6z M210,156h3v3h-3z M216,156h3v3h-3z M222,156h3v3h-3z M228,156h3v3h-3z M66,159h3v3h-3z M72,159h3v3h-3z M78,159h3v3h-3z M84,159h3v3h-3z M90,159h3v3h-3z M111,159h3v3h-3z M117,159h3v3h-3z M126,159h3v3h-3z M132,159h3v3h-3z M138,159h3v3h-3z M159,159h3v3h-3z M165,159h3v3h-3z M219,159h3v3h-3z M225,159h3v3h-3z M66,162h3v3h-3z M87,162h3v3h-3z M93,162h3v3h-3z M108,162h3v3h-3z M114,162h3v3h-3z M135,162h3v3h-3z M159,162h3v3h-3z M165,162h3v3h-3z M63,165h3v3h-3z M69,165h3v3h-3z M87,165h3v3h-3z M93,165h9v3h-9z M108,165h6v3h-6z M138,165h3v3h-3z M144,165h3v3h-3z M153,165h3v3h-3z M159,165h3v3h-3z M165,165h3v3h-3z M63,168h3v3h-3z M90,168h3v3h-3z M96,168h3v3h-3z M102,168h3v3h-3z M108,168h3v3h-3z M114,168h3v3h-3z M138,168h3v3h-3z M147,168h6v3h-6z M156,168h3v3h-3z M162,168h3v3h-3z M60,171h3v3h-3z M66,171h6v3h-6z M90,171h3v3h-3z M96,171h3v3h-3z M102,171h3v3h-3z M108,171h3v3h-3z M114,171h3v3h-3z M138,171h3v3h-3z M147,171h3v3h-3z M153,171h3v3h-3z M159,171h6v3h-6z M63,174h3v3h-3z M69,174h3v3h-3z M90,174h3v3h-3z M111,174h3v3h-3z M132,174h3v3h-3z M138,174h3v3h-3z M156,174h3v3h-3z M162,174h3v3h-3z M66,177h3v3h-3z M72,177h3v3h-3z M87,177h3v3h-3z M93,177h3v3h-3z M114,177h3v3h-3z M120,177h3v3h-3z M135,177h3v3h-3z M162,177h3v3h-3z M69,180h3v3h-3z M75,180h3v3h-3z M81,180h3v3h-3z M87,180h3v3h-3z M111,180h3v3h-3z M117,180h3v3h-3z M123,180h3v3h-3z M129,180h3v3h-3z M135,180h3v3h-3z M159,180h3v3h-3z M165,180h3v3h-3z M195,180h3v3h-3z M201,180h3v3h-3z M207,180h3v3h-3z M72,183h3v3h-3z M78,183h3v3h-3z M84,183h3v3h-3z M117,183h3v3h-3z M123,183h3v3h-3z M129,183h3v3h-3z M159,183h3v3h-3z M165,183h3v3h-3z M195,183h3v3h-3z M201,183h3v3h-3z M207,183h3v3h-3z M213,183h3v3h-3z M78,186h3v3h-3z M120,186h3v3h-3z M126,186h3v3h-3z M162,186h3v3h-3z M192,186h3v3h-3z M198,186h3v3h-3z M204,186h3v3h-3z M210,186h3v3h-3z M216,186h3v3h-3z M162,189h3v3h-3z M168,189h3v3h-3z M189,189h3v3h-3z M195,189h3v3h-3z M210,189h3v3h-3z M216,189h6v3h-6z M162,192h3v3h-3z M168,192h3v3h-3z M177,192h3v3h-3z M186,192h3v3h-3z M213,192h3v3h-3z M219,192h3v3h-3z M168,195h3v3h-3z M174,195h3v3h-3z M180,195h3v3h-3z M186,195h3v3h-3z M192,195h3v3h-3z M216,195h3v3h-3z M168,198h3v3h-3z M174,198h3v3h-3z M180,198h3v3h-3z M186,198h3v3h-3z M192,198h3v3h-3z M213,198h3v3h-3z M219,198h3v3h-3z M180,201h3v3h-3z M189,201h3v3h-3z M213,201h3v3h-3z M219,201h3v3h-3z M189,204h3v3h-3z M195,204h3v3h-3z M213,204h3v3h-3z M189,207h3v3h-3z M195,207h3v3h-3z M201,207h6v3h-6z M210,207h3v3h-3z M216,207h3v3h-3z M195,210h3v3h-3z M201,210h3v3h-3z M207,210h3v3h-3z M213,210h3v3h-3z M201,213h3v3h-3z M207,213h3v3h-3z" fill="#A78BFA" shape-rendering="crispEdges"/>
    </g>
      <!-- Intro animation -->
      <animate attributeName="opacity" 
               values="0;1" 
               dur="3.2s" 
               begin="0s"
               fill="freeze"/>
    </g>
  </g>
  
  <!-- Portrait frame accent lines -->
  <line x1="20" y1="40" x2="60" y2="40" stroke="#10B981" stroke-width="2"/>
  <line x1="20" y1="40" x2="20" y2="80" stroke="#10B981" stroke-width="2"/>
  <line x1="1120" y1="570" x2="1160" y2="570" stroke="#10B981" stroke-width="2"/>
  <line x1="1160" y1="530" x2="1160" y2="570" stroke="#10B981" stroke-width="2"/>
  
  <!-- Info panel -->
  <g transform="translate(0, 0)">
    <text x="420" y="60" font-family="'SF Mono', 'Fira Code', monospace" font-size="13" fill="#22D3EE" letter-spacing="2">SYSTEM.INFO</text>
<rect x="420" y="68" width="40" height="16" rx="3" fill="#EF4444"/>
<text x="440" y="80" font-family="'SF Mono', monospace" font-size="10" fill="white" text-anchor="middle">LIVE</text>
<rect x="420" y="88" width="180" height="18" rx="4" fill="#22D3EE" opacity="0.2"/>
<text x="430" y="100" font-family="'SF Mono', monospace" font-size="14" fill="#22D3EE">@Shivala-08</text>
<text x="420" y="125" font-family="'SF Mono', monospace" font-size="14">
  <tspan fill="#94A3B8">Subject</tspan>
  <tspan fill="#94A3B8" opacity="0.5"> ······· </tspan>
  <tspan fill="#F8FAFC">Pallav Dholariya</tspan>
</text>
<text x="420" y="145" font-family="'SF Mono', monospace" font-size="14">
  <tspan fill="#94A3B8">Role</tspan>
  <tspan fill="#94A3B8" opacity="0.5"> ·· </tspan>
  <tspan fill="#F8FAFC">AI/ML Engineer • Full Stack Developer</tspan>
</text>
<text x="420" y="165" font-family="'SF Mono', monospace" font-size="14">
  <tspan fill="#94A3B8">Origin</tspan>
  <tspan fill="#94A3B8" opacity="0.5"> ············· </tspan>
  <tspan fill="#F8FAFC">Pune, India</tspan>
</text>
<text x="420" y="185" font-family="'SF Mono', monospace" font-size="14">
  <tspan fill="#94A3B8">Education</tspan>
  <tspan fill="#94A3B8" opacity="0.5"> ·· </tspan>
  <tspan fill="#F8FAFC">B.Tech CSE (AI &amp; ML)</tspan>
</text>
<text x="420" y="205" font-family="'SF Mono', monospace" font-size="14">
  <tspan fill="#94A3B8">Status</tspan>
  <tspan fill="#94A3B8" opacity="0.5"> ·· </tspan>
  <tspan fill="#F8FAFC">Building · Learning · Shipping</tspan>
</text>
<text x="420" y="225" font-family="'SF Mono', monospace" font-size="14">
  <tspan fill="#94A3B8">ToolChain</tspan>
  <tspan fill="#94A3B8" opacity="0.5"> ·· </tspan>
  <tspan fill="#F8FAFC">VS Code, Git, Docker</tspan>
</text>
<text x="420" y="253" font-family="'SF Mono', monospace" font-size="14">
  <tspan fill="#94A3B8">Core.Lang</tspan>
  <tspan fill="#94A3B8" opacity="0.5"> ·· </tspan>
  <tspan fill="#F8FAFC">Python, JavaScript, TypeScript</tspan>
</text>
<text x="420" y="273" font-family="'SF Mono', monospace" font-size="14">
  <tspan fill="#94A3B8">Core.Frontend</tspan>
  <tspan fill="#94A3B8" opacity="0.5"> ·· </tspan>
  <tspan fill="#F8FAFC">React, Next.js, Tailwind CSS</tspan>
</text>
<text x="420" y="293" font-family="'SF Mono', monospace" font-size="14">
  <tspan fill="#94A3B8">Core.Backend</tspan>
  <tspan fill="#94A3B8" opacity="0.5"> ·· </tspan>
  <tspan fill="#F8FAFC">FastAPI, Node.js</tspan>
</text>
<text x="420" y="313" font-family="'SF Mono', monospace" font-size="14">
  <tspan fill="#94A3B8">Core.Database</tspan>
  <tspan fill="#94A3B8" opacity="0.5"> ·· </tspan>
  <tspan fill="#F8FAFC">PostgreSQL, Supabase</tspan>
</text>
<text x="420" y="333" font-family="'SF Mono', monospace" font-size="14">
  <tspan fill="#94A3B8">Core.Infra</tspan>
  <tspan fill="#94A3B8" opacity="0.5"> ·· </tspan>
  <tspan fill="#F8FAFC">Docker, GitHub Actions, Vercel</tspan>
</text>
<text x="420" y="361" font-family="'SF Mono', monospace" font-size="14">
  <tspan fill="#94A3B8">Grid.Mail</tspan>
  <tspan fill="#94A3B8" opacity="0.5"> ·· </tspan>
  <tspan fill="#F8FAFC">pallavdholariya@gmail.com</tspan>
</text>
<text x="420" y="381" font-family="'SF Mono', monospace" font-size="14">
  <tspan fill="#94A3B8">Grid.Portfolio</tspan>
  <tspan fill="#94A3B8" opacity="0.5"> ·· </tspan>
  <tspan fill="#F8FAFC">pallav-os.vercel.app</tspan>
</text>
<text x="420" y="401" font-family="'SF Mono', monospace" font-size="14">
  <tspan fill="#94A3B8">Grid.LinkedIn</tspan>
  <tspan fill="#94A3B8" opacity="0.5"> ·· </tspan>
  <tspan fill="#F8FAFC">linkedin.com/in/pallavdholariya</tspan>
</text>
<text x="420" y="421" font-family="'SF Mono', monospace" font-size="14">
  <tspan fill="#94A3B8">Grid.GitHub</tspan>
  <tspan fill="#94A3B8" opacity="0.5"> ·· </tspan>
  <tspan fill="#F8FAFC">github.com/Shivala-08</tspan>
</text>
  </g>
  
  <!-- Bottom status bar -->
  <rect x="20" y="560" width="1140" height="30" rx="4"
        fill="rgba(15,23,42,0.95)" stroke="#334155" stroke-width="1"/>
  
  <text x="40" y="580" font-family="'SF Mono', monospace" font-size="11" fill="#94A3B8">
    <tspan fill="#10B981">❯</tspan>
    <tspan fill="#F8FAFC"> Building · Learning · Shipping</tspan>
  </text>
  
  <text x="1140" y="580" 
        font-family="'SF Mono', monospace" font-size="11" fill="#94A3B8" text-anchor="end">
    <tspan fill="#22D3EE">⌘</tspan> @Shivala-08
  </text>
  
</svg>